<?xml version="1.0" encoding="UTF-8" standalone="no"?>
<!-- Created with Inkscape (http://www.inkscape.org/) -->

<svg
   width="126.47009mm"
   height="126.84868mm"
   viewBox="0 0 126.47007 126.84868"
   version="1.1"
   id="svg1"
   xml:space="preserve"
   inkscape:export-filename="guide.svg"
   inkscape:export-xdpi="300"
   inkscape:export-ydpi="300"
   sodipodi:docname="guide.svg"
   inkscape:version="1.4 (e7c3feb100, 2024-10-09)"
   xmlns:inkscape="http://www.inkscape.org/namespaces/inkscape"
   xmlns:sodipodi="http://sodipodi.sourceforge.net/DTD/sodipodi-0.dtd"
   xmlns="http://www.w3.org/2000/svg"
   xmlns:svg="http://www.w3.org/2000/svg"><sodipodi:namedview
     id="namedview1"
     pagecolor="#ffffff"
     bordercolor="#000000"
     borderopacity="0.25"
     inkscape:showpageshadow="2"
     inkscape:pageopacity="0.0"
     inkscape:pagecheckerboard="0"
     inkscape:deskcolor="#d1d1d1"
     inkscape:document-units="mm"
     inkscape:zoom="5.1796758"
     inkscape:cx="76.066538"
     inkscape:cy="76.2596"
     inkscape:window-width="1840"
     inkscape:window-height="1043"
     inkscape:window-x="0"
     inkscape:window-y="0"
     inkscape:window-maximized="1"
     inkscape:current-layer="svg1"><inkscape:page
       x="-1.3873519e-13"
       y="0"
       width="126.47008"
       height="126.84868"
       id="page2"
       margin="0"
       bleed="0" /></sodipodi:namedview><defs
     id="defs1"><inkscape:path-effect
       effect="mirror_symmetry"
       start_point="85.400217,63.364419"
       end_point="85.400217,67.501667"
       center_point="85.400217,65.433043"
       id="path-effect1"
       is_visible="true"
       lpeversion="1.2"
       lpesatellites=""
       mode="free"
       discard_orig_path="false"
       fuse_paths="false"
       oposite_fuse="false"
       split_items="false"
       split_open="false"
       link_styles="false" /></defs><rect
     style="fill:none;stroke:none;stroke-width:3.50174;stroke-linecap:round;stroke-dasharray:28.0139, 7.00348, 3.50174, 7.00348;stroke-dashoffset:0"
     id="rect1"
     width="126.47008"
     height="126.84869"
     x="3.5745873e-06"
     y="-1.0663625e-06"
     ry="1.3138596" /><g
     inkscape:label="Layer 1"
     inkscape:groupmode="layer"
     id="layer1"
     inkscape:path-effect="#path-effect1"
     transform="translate(-22.149473,-0.95232717)"><path
       style="fill:none;fill-opacity:1;stroke:#000000;stroke-width:2.26908;stroke-linecap:round;stroke-linejoin:round;stroke-miterlimit:3.9;stroke-dasharray:18.1527, 4.53816, 2.26908, 4.53816;stroke-dashoffset:0;stroke-opacity:1"
       d="m 101.42793,74.864751 c 2.35074,-21.792995 27.45348,-12.665547 25.32757,0 -3.28347,8.35415 -16.27023,5.313782 -20.44615,5.932215 M 69.372504,74.864751 c -2.35074,-21.792995 -27.45348,-12.665547 -25.32757,0 3.28347,8.35415 16.27023,5.313782 20.44615,5.932215"
       id="path1"
       sodipodi:nodetypes="cc"
       inkscape:original-d="m 101.42793,74.864751 c 2.35074,-21.792995 27.45348,-12.665547 25.32757,0 -3.28347,8.35415 -16.27023,5.313782 -20.44615,5.932215" /><path
       style="fill:none;fill-opacity:1;stroke:#000000;stroke-width:2.26908;stroke-linecap:round;stroke-linejoin:round;stroke-miterlimit:3.9;stroke-dasharray:18.1527, 4.53816, 2.26908, 4.53816;stroke-dashoffset:0;stroke-opacity:1"
       d="m 103.89354,60.318234 c -2.68061,3.084213 -2.80047,8.459533 -1.66959,10.465075 M 66.906894,60.318234 c 2.68061,3.084213 2.80047,8.459533 1.66959,10.465075"
       id="path2"
       inkscape:original-d="m 103.89354,60.318234 c -2.68061,3.084213 -2.80047,8.459533 -1.66959,10.465075" /><path
       style="fill:none;fill-opacity:1;stroke:#000000;stroke-width:2.26908;stroke-linecap:round;stroke-linejoin:round;stroke-miterlimit:3.9;stroke-dasharray:18.1527, 4.53816, 2.26908, 4.53816;stroke-dashoffset:0;stroke-opacity:1"
       d="m 96.971832,50.139072 c 5.963798,-14.206651 24.411428,-16.490139 31.316698,-2.36957 m -54.459928,2.36957 C 67.864804,35.932421 49.417174,33.648933 42.511904,47.769502"
       id="path3"
       inkscape:original-d="M 96.971832,50.139072 C 102.93563,35.932421 121.38326,33.648933 128.28853,47.769502" /><path
       style="fill:none;fill-opacity:1;stroke:#000000;stroke-width:2.26908;stroke-linecap:round;stroke-linejoin:round;stroke-miterlimit:3.9;stroke-dasharray:18.1527, 4.53816, 2.26908, 4.53816;stroke-dashoffset:0;stroke-opacity:1"
       d="m 85.40669,89.933252 c 4.381743,0.09882 2.833253,2.411502 0,3.346725 m -0.01295,-3.346725 c -4.381743,0.09882 -2.833253,2.411502 0,3.346725"
       id="path4"
       inkscape:original-d="m 85.40669,89.933252 c 4.381743,0.09882 2.833253,2.411502 0,3.346725" /><path
       style="fill:none;fill-opacity:1;stroke:#000000;stroke-width:2.26908;stroke-linecap:round;stroke-linejoin:round;stroke-miterlimit:3.9;stroke-dasharray:18.1527, 4.53816, 2.26908, 4.53816;stroke-dashoffset:0;stroke-opacity:1"
       d="m 85.40669,93.279967 c -0.01778,10.307843 14.70982,11.285183 16.9125,3.981873 M 85.393744,93.279967 c 0.01778,10.307843 -14.70982,11.285183 -16.9125,3.981873"
       id="path5"
       inkscape:original-d="m 85.40669,93.279967 c -0.01778,10.307843 14.70982,11.285183 16.9125,3.981873" /><path
       style="fill:none;fill-opacity:1;stroke:#000000;stroke-width:2.26908;stroke-linecap:round;stroke-linejoin:round;stroke-miterlimit:3.9;stroke-dasharray:18.1527, 4.53816, 2.26908, 4.53816;stroke-dashoffset:0;stroke-opacity:1"
       d="m 77.916769,103.38496 c -0.460481,5.46233 1.952573,9.69109 7.489921,10.4639 m 7.476975,-10.4639 c 0.460481,5.46233 -1.952573,9.69109 -7.489921,10.4639"
       id="path6"
       inkscape:original-d="m 77.916769,103.38496 c -0.460481,5.46233 1.952573,9.69109 7.489921,10.4639" /><path
       sodipodi:type="arc"
       style="fill:none;fill-opacity:1;stroke:#000000;stroke-width:1.614;stroke-linecap:round;stroke-linejoin:round;stroke-miterlimit:3.9;stroke-dasharray:12.912, 3.228, 1.614, 3.228;stroke-dashoffset:0;stroke-opacity:1"
       id="path7"
       sodipodi:cx="109.31801"
       sodipodi:cy="72.808937"
       sodipodi:rx="3.7143195"
       sodipodi:ry="4.9793735"
       d="m 113.03233,72.808937 c 0,2.750032 -1.66296,4.979374 -3.71432,4.979374 -2.05136,0 -3.71432,-2.229342 -3.71432,-4.979374 0,-2.750032 1.66296,-4.979373 3.71432,-4.979373 2.05136,0 3.71432,2.229341 3.71432,4.979373 z m -55.264224,0 c 0,2.750032 1.662958,4.979374 3.71432,4.979374 2.051362,0 3.714319,-2.229342 3.714319,-4.979374 0,-2.750032 -1.662957,-4.979373 -3.714319,-4.979373 -2.051362,0 -3.71432,2.229341 -3.71432,4.979373 z" /><path
       style="fill:none;fill-opacity:1;stroke:#000000;stroke-width:0.952897;stroke-linecap:round;stroke-linejoin:round;stroke-miterlimit:3.9;stroke-dasharray:0.952897, 2.85868;stroke-dashoffset:0;stroke-opacity:1"
       d="M 85.406696,2.294304 V 126.72361 M 85.393738,2.294304 V 126.72361"
       id="path8"
       inkscape:original-d="M 85.406696,2.294304 V 126.72361"
       sodipodi:nodetypes="cc" /></g></svg>
