<?xml version="1.0" encoding="UTF-8" standalone="no"?>
<!-- Created with Inkscape (http://www.inkscape.org/) -->

<svg
   width="40.233589mm"
   height="40.354038mm"
   viewBox="0 0 40.233589 40.354038"
   version="1.1"
   id="svg1"
   xml:space="preserve"
   inkscape:export-filename="guide.png"
   inkscape:export-xdpi="300"
   inkscape:export-ydpi="300"
   sodipodi:docname="guide.svg"
   inkscape:version="1.4 (e7c3feb100, 2024-10-09)"
   xmlns:inkscape="http://www.inkscape.org/namespaces/inkscape"
   xmlns:sodipodi="http://sodipodi.sourceforge.net/DTD/sodipodi-0.dtd"
   xmlns="http://www.w3.org/2000/svg"
   xmlns:svg="http://www.w3.org/2000/svg"><sodipodi:namedview
     id="namedview1"
     pagecolor="#ffffff"
     bordercolor="#000000"
     borderopacity="0.25"
     inkscape:showpageshadow="2"
     inkscape:pageopacity="0.0"
     inkscape:pagecheckerboard="0"
     inkscape:deskcolor="#d1d1d1"
     inkscape:document-units="mm"
     inkscape:zoom="5.1796758"
     inkscape:cx="76.066538"
     inkscape:cy="76.2596"
     inkscape:window-width="1840"
     inkscape:window-height="1043"
     inkscape:window-x="0"
     inkscape:window-y="0"
     inkscape:window-maximized="1"
     inkscape:current-layer="svg1" /><defs
     id="defs1"><inkscape:path-effect
       effect="mirror_symmetry"
       start_point="85.400217,63.364419"
       end_point="85.400217,67.501667"
       center_point="85.400217,65.433043"
       id="path-effect1"
       is_visible="true"
       lpeversion="1.2"
       lpesatellites=""
       mode="free"
       discard_orig_path="false"
       fuse_paths="false"
       oposite_fuse="false"
       split_items="false"
       split_open="false"
       link_styles="false" /></defs><g
     inkscape:label="Layer 1"
     inkscape:groupmode="layer"
     id="layer1"
     inkscape:path-effect="#path-effect1"
     transform="translate(-65.267717,-44.199652)"><path
       style="fill:none;fill-opacity:1;stroke:#000000;stroke-width:0.714375;stroke-linecap:round;stroke-linejoin:round;stroke-miterlimit:3.9;stroke-dasharray:5.715, 1.42875, 0.714375, 1.42875;stroke-dashoffset:0;stroke-opacity:1"
       d="m 90.444177,67.636984 c 0.740083,-6.861081 8.643169,-3.98749 7.973869,0 -1.033736,2.630134 -5.122351,1.672936 -6.437052,1.867637 M 80.356257,67.636984 c -0.740083,-6.861081 -8.643169,-3.98749 -7.973869,0 1.033736,2.630134 5.122351,1.672936 6.437052,1.867637"
       id="path1"
       sodipodi:nodetypes="cc"
       inkscape:original-d="m 90.444177,67.636984 c 0.740083,-6.861081 8.643169,-3.98749 7.973869,0 -1.033736,2.630134 -5.122351,1.672936 -6.437052,1.867637" /><path
       style="fill:none;fill-opacity:1;stroke:#000000;stroke-width:0.714375;stroke-linecap:round;stroke-linejoin:round;stroke-miterlimit:3.9;stroke-dasharray:5.715, 1.42875, 0.714375, 1.42875;stroke-dashoffset:0;stroke-opacity:1"
       d="m 91.220424,63.057309 c -0.843936,0.971002 -0.881671,2.663312 -0.525637,3.294716 M 79.58001,63.057309 c 0.843936,0.971002 0.881671,2.663312 0.525637,3.294716"
       id="path2"
       inkscape:original-d="m 91.220424,63.057309 c -0.843936,0.971002 -0.881671,2.663312 -0.525637,3.294716" /><path
       style="fill:none;fill-opacity:1;stroke:#000000;stroke-width:0.714375;stroke-linecap:round;stroke-linejoin:round;stroke-miterlimit:3.9;stroke-dasharray:5.715, 1.42875, 0.714375, 1.42875;stroke-dashoffset:0;stroke-opacity:1"
       d="m 89.041265,59.852607 c 1.877581,-4.472675 7.685442,-5.191585 9.859425,-0.746011 m -17.141521,0.746011 c -1.877581,-4.472675 -7.685442,-5.191585 -9.859425,-0.746011"
       id="path3"
       inkscape:original-d="m 89.041265,59.852607 c 1.877581,-4.472675 7.685442,-5.191585 9.859425,-0.746011" /><path
       style="fill:none;fill-opacity:1;stroke:#000000;stroke-width:0.714375;stroke-linecap:round;stroke-linejoin:round;stroke-miterlimit:3.9;stroke-dasharray:5.715, 1.42875, 0.714375, 1.42875;stroke-dashoffset:0;stroke-opacity:1"
       d="m 85.400215,72.380995 c 1.379503,0.03111 0.891992,0.759212 0,1.053648 m 4e-6,-1.053648 c -1.379503,0.03111 -0.891992,0.759212 0,1.053648"
       id="path4"
       inkscape:original-d="m 85.400215,72.380995 c 1.379503,0.03111 0.891992,0.759212 0,1.053648" /><path
       style="fill:none;fill-opacity:1;stroke:#000000;stroke-width:0.714375;stroke-linecap:round;stroke-linejoin:round;stroke-miterlimit:3.9;stroke-dasharray:5.715, 1.42875, 0.714375, 1.42875;stroke-dashoffset:0;stroke-opacity:1"
       d="m 85.400215,73.43464 c -0.0056,3.245215 4.631089,3.55291 5.324557,1.253612 M 85.400219,73.43464 c 0.0056,3.245215 -4.631089,3.55291 -5.324557,1.253612"
       id="path5"
       inkscape:original-d="m 85.400215,73.43464 c -0.0056,3.245215 4.631089,3.55291 5.324557,1.253612" /><path
       style="fill:none;fill-opacity:1;stroke:#000000;stroke-width:0.714375;stroke-linecap:round;stroke-linejoin:round;stroke-miterlimit:3.9;stroke-dasharray:5.715, 1.42875, 0.714375, 1.42875;stroke-dashoffset:0;stroke-opacity:1"
       d="m 83.042166,76.61599 c -0.144973,1.719705 0.614728,3.051043 2.358049,3.294346 m 2.358053,-3.294346 c 0.144973,1.719705 -0.614728,3.051043 -2.358049,3.294346"
       id="path6"
       inkscape:original-d="m 83.042166,76.61599 c -0.144973,1.719705 0.614728,3.051043 2.358049,3.294346" /><path
       sodipodi:type="arc"
       style="fill:none;fill-opacity:1;stroke:#000000;stroke-width:0.714375;stroke-linecap:round;stroke-linejoin:round;stroke-miterlimit:3.9;stroke-dasharray:5.715, 1.42875, 0.714375, 1.42875;stroke-dashoffset:0;stroke-opacity:1"
       id="path7"
       sodipodi:cx="92.928207"
       sodipodi:cy="66.989754"
       sodipodi:rx="1.1693779"
       sodipodi:ry="1.5676545"
       d="m 94.097585,66.989754 c 0,0.865791 -0.523548,1.567654 -1.169378,1.567654 -0.645829,0 -1.169378,-0.701863 -1.169378,-1.567654 0,-0.865792 0.523549,-1.567655 1.169378,-1.567655 0.64583,0 1.169378,0.701863 1.169378,1.567655 z m -17.394736,0 c 0,0.865791 0.523548,1.567654 1.169378,1.567654 0.645829,0 1.169378,-0.701863 1.169378,-1.567654 0,-0.865792 -0.523549,-1.567655 -1.169378,-1.567655 -0.64583,0 -1.169378,0.701863 -1.169378,1.567655 z" /><path
       style="fill:none;fill-opacity:1;stroke:#000000;stroke-width:0.3;stroke-linecap:round;stroke-linejoin:round;stroke-miterlimit:3.9;stroke-dasharray:0.3, 0.9;stroke-dashoffset:0;stroke-opacity:1"
       d="m 85.400217,44.789655 v 39.174034 m 0,-39.174034 v 39.174034"
       id="path8"
       inkscape:original-d="M 85.400217,44.789655 V 83.963689"
       sodipodi:nodetypes="cc" /></g></svg>
